<?xml version="1.0" encoding="UTF-8"?>
<svg id="Layer_2" data-name="Layer 2" xmlns="http://www.w3.org/2000/svg" viewBox="0 0 189.45 121.7">
  <defs>
    <style>
      .cls-1 {
        fill: #fafafa;
      }
    </style>
  </defs>
  <g id="Layer_1-2" data-name="Layer 1">
    <path class="cls-1" d="M127.21,114.08c0-1.31.25-2.79.75-4.43.5-1.64,1.08-3.32,1.74-5.04.75-1.72,1.53-3.4,2.36-5.04.83-1.72,1.58-3.36,2.24-4.92,1.99-4.92,4.11-10.12,6.35-15.61,2.24-5.57,4.52-11.23,6.85-16.96,2.32-5.74,4.56-11.39,6.72-16.96,2.16-5.66,4.19-10.98,6.1-15.98,1.91-4.59,2.86-8.61,2.86-12.05,0-.66-.12-1.23-.37-1.72-.25-.57-.71-.86-1.37-.86-1.83,0-4.02.78-6.6,2.34-2.57,1.48-5.14,3.28-7.72,5.41-2.49,2.05-4.85,4.18-7.09,6.39-2.24,2.13-3.98,3.85-5.23,5.16-3.24,3.44-6.01,6.6-8.34,9.47-2.32,2.87-4.73,6.11-7.22,9.71-1.33,2.05-2.78,4.3-4.36,6.76-1.49,2.46-3.03,5-4.61,7.62-1.49,2.54-2.99,5.08-4.48,7.62-1.49,2.46-2.9,4.71-4.23,6.76-.66,1.15-1.45,2.5-2.37,4.06-.91,1.47-1.87,3.03-2.86,4.67-.91,1.56-1.87,3.11-2.86,4.67-.91,1.47-1.74,2.83-2.49,4.06-1.16,2.05-2.49,4.38-3.98,7.01-1.49,2.62-3.15,5.08-4.98,7.38-1.74,2.29-3.61,4.22-5.6,5.78-1.91,1.56-3.86,2.34-5.85,2.34-1.49,0-2.9-.08-4.23-.25-1.24-.16-2.36-.53-3.36-1.11-.91-.49-1.66-1.23-2.24-2.21-.5-.98-.75-2.34-.75-4.06,0-1.15.21-2.29.62-3.44.5-1.23,1.16-2.62,1.99-4.18s1.78-3.32,2.86-5.29c1.16-1.97,2.45-4.34,3.86-7.13,2.9-6.07,5.64-11.8,8.21-17.21,2.57-5.41,5.11-10.82,7.59-16.23,2.49-5.41,4.98-10.94,7.47-16.6,2.57-5.66,5.27-11.8,8.09-18.44.91-2.13,1.49-3.97,1.74-5.53.33-1.64.5-2.99.5-4.06,0-1.97-1.24-2.95-3.74-2.95-.91,0-1.91.25-2.99.74-1,.49-2.07,1.11-3.24,1.84-1.08.74-2.16,1.56-3.24,2.46-1.08.82-2.07,1.6-2.99,2.34-3.57,2.79-6.68,5.53-9.33,8.24-2.57,2.7-5.27,5.74-8.09,9.1-4.23,5-8.22,10.12-11.95,15.37-3.65,5.25-7.43,10.61-11.33,16.1-2.49,3.44-4.81,6.88-6.97,10.33-2.07,3.44-4.19,6.92-6.35,10.45-1.74,2.95-3.44,6.27-5.1,9.96-1.66,3.61-3.53,7.05-5.6,10.33-1.99,3.2-4.32,5.9-6.97,8.11-2.57,2.21-5.68,3.32-9.34,3.32-1.16,0-2.12-.33-2.86-.98s-1.33-1.48-1.74-2.46c-.41-.98-.71-2.01-.87-3.07-.17-1.07-.25-2.01-.25-2.83,0-1.88.46-4.02,1.37-6.39.91-2.46,1.95-5,3.11-7.62,1.49-3.61,3.24-7.7,5.23-12.29,1.99-4.59,4.07-9.42,6.22-14.51,2.16-5.08,4.36-10.2,6.6-15.37,2.24-5.25,4.36-10.24,6.35-15,2.08-4.75,3.98-9.14,5.73-13.15,1.74-4.02,3.19-7.38,4.36-10.08.42-.74.66-1.39.75-1.97.17-.66.25-1.15.25-1.48,0-.41-.33-.61-1-.61-1.16,0-2.65.45-4.48,1.35-1.74.9-3.53,2.01-5.35,3.32-1.82,1.31-3.57,2.66-5.23,4.06-1.66,1.31-2.9,2.42-3.73,3.32-1.49,1.64-2.7,3.28-3.61,4.92-.91,1.56-1.91,3.28-2.99,5.16-.75,1.31-1.37,2.21-1.87,2.7-.5.49-.96.94-1.37,1.35-.33.08-.71.12-1.12.12-.58,0-.87-.29-.87-.86,0-4.75,1.24-9.47,3.73-14.14,2.57-4.75,5.81-8.97,9.71-12.66,3.98-3.77,8.38-6.8,13.19-9.1,4.9-2.29,9.67-3.44,14.31-3.44,1.91,0,3.28.82,4.11,2.46.83,1.56,1.24,3.16,1.24,4.79,0,1.07-.25,2.42-.75,4.06-.41,1.56-.95,3.24-1.62,5.04-.66,1.8-1.41,3.61-2.24,5.41-.75,1.8-1.45,3.48-2.11,5.04-.66,1.56-1.7,3.85-3.11,6.88-1.33,2.95-2.74,6.11-4.23,9.47-1.41,3.28-2.74,6.47-3.98,9.59-1.24,3.11-1.99,5.53-2.24,7.25,0,.33.17.49.5.49.25,0,.54-.16.87-.49.17-.08.5-.33,1-.74.58-.49,1.2-1.02,1.87-1.6.66-.66,1.33-1.31,1.99-1.97.66-.66,1.2-1.19,1.62-1.6,4.98-5.41,10.04-10.9,15.19-16.47,5.23-5.57,10.5-10.94,15.81-16.1,1-.98,2.2-2.01,3.61-3.07,1.41-1.15,2.82-2.25,4.23-3.32,1.49-1.15,2.95-2.21,4.36-3.2,1.49-.98,2.82-1.8,3.98-2.46,1.49-.9,3.28-1.89,5.35-2.95,2.16-1.07,4.32-2.05,6.47-2.95,2.16-.9,4.23-1.64,6.22-2.21,1.99-.57,3.57-.86,4.73-.86,2.57,0,4.4.61,5.48,1.84,1.08,1.15,1.62,2.99,1.62,5.53,0,3.69-.83,7.54-2.49,11.56-1.58,3.93-3.36,7.83-5.35,11.68-1.99,3.85-3.82,7.62-5.48,11.31-1.58,3.61-2.36,6.93-2.36,9.96.66,0,1.62-.57,2.86-1.72,1.25-1.15,2.53-2.46,3.86-3.93,1.33-1.48,2.57-2.91,3.74-4.3,1.24-1.39,2.12-2.34,2.61-2.83,1.74-2.05,3.65-4.22,5.73-6.52,2.07-2.29,4.23-4.55,6.47-6.76,2.24-2.21,4.48-4.26,6.72-6.15,2.24-1.97,4.4-3.65,6.47-5.04,2.74-1.72,5.72-3.44,8.96-5.16,3.24-1.72,6.52-3.24,9.83-4.55,3.32-1.39,6.6-2.5,9.83-3.32,3.24-.9,6.27-1.35,9.09-1.35,3.07,0,5.44.86,7.1,2.58,1.74,1.72,2.61,4.02,2.61,6.88,0,.41-.04,1.15-.12,2.21-.08.98-.41,2.34-1,4.06-2.49,6.64-5.14,13.52-7.96,20.65-2.74,7.13-5.6,14.26-8.59,21.39-2.9,7.13-5.89,14.14-8.96,21.02-2.99,6.8-5.89,13.28-8.71,19.42-.17.66-.54,1.52-1.12,2.58-.5,1.07-.75,1.76-.75,2.09,0,.17.04.37.12.62.17.16.33.33.5.49,2.99-1.15,5.93-2.62,8.84-4.43,2.99-1.88,5.77-3.77,8.34-5.65,1.24-.98,2.7-2.25,4.36-3.81,1.66-1.56,3.32-3.07,4.98-4.55,1.74-1.48,3.4-2.75,4.98-3.81,1.58-1.07,2.9-1.6,3.98-1.6.42,0,.71.25.87.74.16.49.25,1.02.25,1.6,0,1.31-.79,2.99-2.36,5.04-1.49,1.97-3.49,4.14-5.98,6.51-2.41,2.29-5.1,4.67-8.09,7.13-2.91,2.38-5.81,4.63-8.71,6.76-2.82,2.13-5.43,4.02-7.84,5.66-2.41,1.56-4.27,2.66-5.6,3.32-3.15,1.64-6.22,2.71-9.21,3.2-2.91.57-5.44.86-7.59.86-1,0-1.91-.25-2.74-.74-.83-.41-1.58-.98-2.24-1.72-.58-.74-1.04-1.56-1.37-2.46-.33-.9-.5-1.8-.5-2.71Z"/>
  </g>
</svg>